<svg width="23" height="28" viewBox="0 0 23 28" fill="none" xmlns="http://www.w3.org/2000/svg">
<g clip-path="url(#clip0_42_1698)">
<path d="M2.89196 24.0585C3.90895 25.5224 5.29949 27.5242 7.09357 27.5242V27.5207H7.18498C7.86984 27.4773 8.53946 27.2981 9.15543 26.9933H9.17267C9.95229 26.6122 10.8069 26.4123 11.6735 26.4086C12.5034 26.4177 13.3208 26.613 14.0664 26.9803H14.0716C14.6946 27.2965 15.38 27.4681 16.0774 27.4825H16.1792C17.9841 27.4555 19.1378 25.9386 20.3451 24.1089C21.1739 22.9137 21.8163 21.5979 22.25 20.2071V20.2002C21.5704 19.9119 20.9494 19.4995 20.4184 18.9838C19.832 18.4263 19.3666 17.7526 19.0513 17.005C18.7361 16.2574 18.578 15.452 18.5868 14.6398C18.6038 13.5856 18.8836 12.5526 19.4003 11.6356C19.9169 10.7187 20.654 9.94733 21.5438 9.39223C20.9766 8.57727 20.2289 7.90651 19.3599 7.43302C18.4909 6.95953 17.5245 6.69631 16.537 6.66419C16.3724 6.64942 16.2249 6.6416 16.0989 6.6416C15.0096 6.71056 13.9425 6.98339 12.9523 7.44611H12.9316C12.4223 7.69486 11.8757 7.85691 11.3139 7.92569C10.7215 7.86246 10.1448 7.69391 9.61074 7.42787H9.59177C8.73578 7.01856 7.80992 6.77821 6.86419 6.7198H6.78658C5.63538 6.75628 4.51323 7.09282 3.52964 7.69656C2.54603 8.30031 1.73459 9.15065 1.17449 10.1646C0.0454163 12.3995 -0.282374 14.959 0.246607 17.4095C0.663483 19.782 1.5618 22.0423 2.88536 24.0489L2.89196 24.0585Z" fill="white"/>
<path d="M11.1 6.344C11.1889 6.35197 11.2781 6.35546 11.3674 6.35443C12.0995 6.31719 12.8157 6.12494 13.4691 5.79023C14.1225 5.4555 14.6987 4.98582 15.1599 4.41178C16.1822 3.18276 16.6844 1.59846 16.5586 0C15.0035 0.163702 13.5668 0.911959 12.535 2.09555C11.5165 3.26402 11.0004 4.79218 11.1 6.344Z" fill="white"/>
</g>
<defs>
<clipPath id="clip0_42_1698">
<rect width="23" height="28" fill="white"/>
</clipPath>
</defs>
</svg>
