<svg width="454" height="341" viewBox="0 0 454 341" fill="none" xmlns="http://www.w3.org/2000/svg">
<path fill-rule="evenodd" clip-rule="evenodd" d="M449.614 56.3811C449.614 25.2423 424.37 0.00292969 393.223 0.00292969H56.3879C25.2408 0.00292969 -0.00317383 25.2423 -0.00317383 56.3811V878.623C-0.00317383 909.762 25.2408 935.001 56.3879 935.001H393.223C424.37 935.001 449.614 909.762 449.614 878.623V56.3811ZM449.617 333.941H451.85C453.037 333.941 453.998 334.903 453.998 336.089V397.207C453.998 398.393 453.037 399.355 451.85 399.355H449.617V333.941ZM451.85 158.958H449.617V278.643H451.85C453.037 278.643 453.998 277.681 453.998 276.495V161.106C453.998 159.919 453.037 158.958 451.85 158.958Z" fill="#1C1B2D"/>
</svg>
