<svg width="68" height="68" viewBox="0 0 68 68" fill="none" xmlns="http://www.w3.org/2000/svg">
<rect width="68" height="68" rx="20" fill="#0328EE"/>
<g opacity="0.84992" clip-path="url(#clip0_42_1175)">
<path fill-rule="evenodd" clip-rule="evenodd" d="M54.0855 26.162H45.173C41.0255 26.1692 37.6655 29.4376 37.658 33.4721C37.6524 37.5157 41.0161 40.7987 45.173 40.8041H54.093V41.4466C54.093 48.5001 49.807 52.671 42.5539 52.671H23.541C16.286 52.671 12 48.5001 12 41.4466V26.0837C12 19.0301 16.286 14.8755 23.541 14.8755H42.5464C49.7995 14.8755 54.0855 19.0301 54.0855 26.0837V26.162ZM21.9751 26.1455H33.8454H33.8528H33.8678C34.7565 26.1419 35.4748 25.4375 35.4711 24.5713C35.4673 23.7069 34.7414 23.0081 33.8528 23.0118H21.9751C21.0921 23.0154 20.3756 23.7124 20.3719 24.5732C20.3681 25.4375 21.0865 26.1419 21.9751 26.1455Z" fill="white"/>
<path opacity="0.4" d="M41.5439 34.3961C41.984 36.3934 43.7392 37.7986 45.7431 37.7621H52.5831C53.4168 37.7621 54.0931 37.0732 54.0931 36.2216V30.906C54.0913 30.0563 53.4168 29.3656 52.5831 29.3638H45.5821C43.3027 29.3711 41.4616 31.2587 41.4652 33.5848C41.4652 33.8572 41.4921 34.1294 41.5439 34.3961Z" fill="white"/>
<path d="M45.6742 35.6629C46.8366 35.6629 47.7789 34.7228 47.7789 33.5631C47.7789 32.4035 46.8366 31.4634 45.6742 31.4634C44.5119 31.4634 43.5696 32.4035 43.5696 33.5631C43.5696 34.7228 44.5119 35.6629 45.6742 35.6629Z" fill="white"/>
</g>
<defs>
<clipPath id="clip0_42_1175">
<rect width="43" height="39" fill="white" transform="translate(12 14)"/>
</clipPath>
</defs>
</svg>
