<svg width="68" height="68" viewBox="0 0 68 68" fill="none" xmlns="http://www.w3.org/2000/svg">
<rect width="68" height="68" rx="20" fill="#0328EE"/>
<g opacity="0.84992" clip-path="url(#clip0_42_1147)">
<path opacity="0.4" d="M15.7512 22.5122H39.5484C40.6493 22.5122 41.5429 23.4052 41.5429 24.5055C41.5429 25.6057 40.6493 26.4988 39.5484 26.4988H15.7512C14.6503 26.4988 13.7568 25.6057 13.7568 24.5055C13.7568 23.4052 14.6503 22.5122 15.7512 22.5122Z" fill="white"/>
<mask id="mask0_42_1147" style="mask-type:alpha" maskUnits="userSpaceOnUse" x="37" y="14" width="18" height="22">
<path fill-rule="evenodd" clip-rule="evenodd" d="M37.4186 35.4653V14H54.5797V35.4653H37.4186Z" fill="white"/>
</mask>
<g mask="url(#mask0_42_1147)">
<path d="M38.7655 14.1833C39.0169 14.1833 39.2647 14.2533 39.4838 14.3898L53.7361 23.366C54.1275 23.6136 54.3665 24.0427 54.3665 24.5057C54.3665 24.9688 54.1275 25.3978 53.7361 25.6455L39.4838 34.6216C39.069 34.8819 38.5446 34.8981 38.1154 34.6593C37.6844 34.4224 37.4186 33.9719 37.4186 33.4819V15.5295C37.4186 15.0395 37.6844 14.589 38.1154 14.3521C38.3183 14.239 38.5428 14.1833 38.7655 14.1833Z" fill="white"/>
</g>
<path opacity="0.4" d="M52.3188 46.0591H28.5216C27.4206 46.0591 26.5272 45.1661 26.5272 44.0658C26.5272 42.9654 27.4206 42.0725 28.5216 42.0725H52.3188C53.4197 42.0725 54.3132 42.9654 54.3132 44.0658C54.3132 45.1661 53.4197 46.0591 52.3188 46.0591Z" fill="white"/>
<mask id="mask1_42_1147" style="mask-type:alpha" maskUnits="userSpaceOnUse" x="13" y="33" width="18" height="22">
<path fill-rule="evenodd" clip-rule="evenodd" d="M30.5156 33.1057V54.571H13.3545V33.1057H30.5156Z" fill="white"/>
</mask>
<g mask="url(#mask1_42_1147)">
<path d="M29.1687 54.3877C28.9173 54.3877 28.6695 54.3177 28.4504 54.1813L14.1981 45.2052C13.8066 44.9574 13.5677 44.5285 13.5677 44.0654C13.5677 43.6024 13.8066 43.1733 14.1981 42.9257L28.4504 33.9495C28.8652 33.6891 29.3896 33.673 29.8188 33.9117C30.2498 34.1486 30.5156 34.5991 30.5156 35.0892V53.0416C30.5156 53.5316 30.2498 53.9821 29.8188 54.219C29.6158 54.3321 29.3914 54.3877 29.1687 54.3877Z" fill="white"/>
</g>
</g>
<defs>
<clipPath id="clip0_42_1147">
<rect width="42" height="41" fill="white" transform="translate(13 14)"/>
</clipPath>
</defs>
</svg>
