<svg width="46" height="46" viewBox="0 0 46 46" fill="none" xmlns="http://www.w3.org/2000/svg">
<rect width="46" height="46" rx="13" fill="#0328EE"/>
<g clip-path="url(#clip0_43_1763)">
<path d="M22.5917 41.1136C32.3073 41.1136 40.1834 33.2375 40.1834 23.5219C40.1834 13.8062 32.3073 5.93018 22.5917 5.93018C12.8761 5.93018 5 13.8062 5 23.5219C5 33.2375 12.8761 41.1136 22.5917 41.1136Z" fill="white" fill-opacity="0.4"/>
<path d="M26.0349 12.6577C26.0349 12.2123 25.4963 11.9892 25.1814 12.3042L13.7111 23.7744C13.5907 23.895 13.5087 24.0485 13.4755 24.2157C13.4423 24.3828 13.4594 24.5561 13.5246 24.7135C13.5898 24.871 13.7002 25.0056 13.8418 25.1003C13.9835 25.1951 14.15 25.2457 14.3204 25.2459H18.6488C18.9249 25.2459 19.1488 25.4698 19.1488 25.7459V34.3853C19.1488 34.8307 19.6873 35.0538 20.0023 34.7388L31.4726 23.2686C31.593 23.148 31.675 22.9944 31.7082 22.8273C31.7414 22.6601 31.7243 22.4869 31.6591 22.3294C31.5939 22.172 31.4835 22.0374 31.3419 21.9426C31.2002 21.8479 31.0337 21.7972 30.8633 21.7971H26.5349C26.2588 21.7971 26.0349 21.5732 26.0349 21.2971V12.6577Z" fill="white"/>
</g>
<defs>
<clipPath id="clip0_43_1763">
<rect width="36" height="37" fill="white" transform="translate(5 5)"/>
</clipPath>
</defs>
</svg>
