<svg width="68" height="68" viewBox="0 0 68 68" fill="none" xmlns="http://www.w3.org/2000/svg">
<rect width="68" height="68" rx="20" fill="#0328EE"/>
<g opacity="0.84992">
<path d="M48.6973 19.5031C46.2006 16.491 42.8315 14.3197 39.0499 13.2855C35.2684 12.2514 31.2585 12.4048 27.5677 13.7249C23.8769 15.045 20.685 17.4674 18.4278 20.6614C16.1705 23.8556 14.9579 27.6656 14.9553 31.5716V36.7537" stroke="white" stroke-opacity="0.4" stroke-width="4.92496" stroke-linecap="round" stroke-linejoin="round"/>
<path d="M21.0117 47.7566C23.6299 50.52 27.0206 52.4368 30.7448 53.2589C34.4691 54.081 38.3554 53.7706 41.9005 52.3678C45.4455 50.965 48.4862 48.5345 50.6288 45.391C52.7713 42.2474 53.9172 38.5355 53.9178 34.736V31.2859" stroke="white" stroke-opacity="0.4" stroke-width="4.92496" stroke-linecap="round" stroke-linejoin="round"/>
<path d="M23.5805 28.2663C23.5696 28.4741 23.5007 28.6759 23.3779 28.8511L15.3068 40.2399C15.0841 40.5528 14.7176 40.7316 14.3332 40.7115C13.9488 40.6914 13.6031 40.4754 13.4145 40.1411L6.58269 27.9743C6.38469 27.6202 6.39408 27.1862 6.61091 26.8418C6.82633 26.4959 7.21188 26.2957 7.61864 26.317L22.5216 27.0949C22.9284 27.1162 23.2908 27.3553 23.4688 27.7218C23.5538 27.8944 23.5903 28.0823 23.5805 28.2663Z" fill="white"/>
<path d="M44.8515 38.6356C44.8587 38.4304 44.9232 38.2301 45.0412 38.0553L52.8074 26.6804C53.0217 26.3679 53.3803 26.1852 53.7598 26.1984C54.1395 26.2116 54.4843 26.4187 54.6761 26.7453L61.6268 38.6321C61.8283 38.9781 61.8265 39.4065 61.6185 39.75C61.412 40.095 61.0351 40.299 60.6334 40.285L45.9165 39.7731C45.5149 39.7592 45.1531 39.5294 44.9712 39.1709C44.8843 39.0021 44.8451 38.8173 44.8515 38.6356Z" fill="white"/>
</g>
</svg>
