<svg width="46" height="46" viewBox="0 0 46 46" fill="none" xmlns="http://www.w3.org/2000/svg">
<rect width="46" height="46" rx="13" fill="#0328EE"/>
<g clip-path="url(#clip0_43_1728)">
<path opacity="0.4" d="M23.211 41.4324C21.8105 41.4324 20.4118 40.9006 19.3427 39.8389L18.0132 38.5094C17.4978 37.9958 16.8075 37.7116 16.0754 37.7098H14.205C11.1817 37.7098 8.72126 35.2493 8.72126 32.2261V30.3539C8.71944 29.6235 8.43532 28.9333 7.91991 28.4142L6.61227 27.1084C4.47049 24.9794 4.46139 21.499 6.59223 19.3554L7.92174 18.0241C8.43532 17.5087 8.71944 16.8184 8.72126 16.0863V14.2178C8.72126 11.1927 11.1817 8.7322 14.205 8.7322H16.0772C16.8075 8.7322 17.496 8.44808 18.015 7.92903L19.3245 6.62321C21.4535 4.48143 24.9321 4.47051 27.0775 6.60317L28.407 7.93268C28.9242 8.44808 29.6126 8.7322 30.343 8.7322H32.2152C35.2384 8.7322 37.6989 11.1927 37.6989 14.2178V16.0881C37.7008 16.8184 37.9849 17.5087 38.5003 18.0277L39.8079 19.3354C40.8442 20.3662 41.4179 21.7394 41.4234 23.2055C41.427 24.6625 40.8661 26.0339 39.8443 27.0702C39.8261 27.0884 39.8097 27.1084 39.7915 27.1248L38.4985 28.4179C37.9849 28.9333 37.7008 29.6235 37.6989 30.3557V32.2261C37.6989 35.2493 35.2384 37.7098 32.2152 37.7098H30.343C29.6126 37.7116 28.9224 37.9958 28.4052 38.5112L27.0957 39.8188C26.0285 40.8933 24.6188 41.4324 23.211 41.4324Z" fill="white"/>
<path d="M13.9365 28.43C13.8777 28.43 13.8287 28.43 13.7896 28.43C13.7602 28.4398 13.721 28.4447 13.672 28.4447C13.4369 28.4447 13.2508 28.386 13.1137 28.2684C12.9863 28.1607 12.9227 28.0235 12.9227 27.857C12.9227 27.6709 13.0304 27.4848 13.2459 27.2987C13.863 27.0146 14.392 26.6571 14.8328 26.2261C15.2736 25.7951 15.6213 25.276 15.876 24.6686C15.6605 24.747 15.445 24.8058 15.2295 24.845C15.014 24.8743 14.7936 24.889 14.5683 24.889C14.0491 24.889 13.5986 24.8058 13.2165 24.6393C12.8443 24.4727 12.5309 24.2621 12.2762 24.0075C12.0215 23.743 11.8305 23.4491 11.7032 23.1259C11.5856 22.8026 11.5269 22.4843 11.5269 22.1708C11.5269 21.8084 11.6003 21.446 11.7472 21.0836C11.8942 20.7113 12.1048 20.3832 12.379 20.0991C12.6631 19.8053 13.0108 19.5702 13.4222 19.3939C13.8434 19.2078 14.3283 19.1147 14.8768 19.1147C15.3862 19.1147 15.827 19.2127 16.1992 19.4086C16.5714 19.6045 16.8751 19.8641 17.1102 20.1873C17.3453 20.5007 17.5167 20.8632 17.6244 21.2746C17.7322 21.686 17.7763 22.1072 17.7567 22.5382C17.7567 23.1749 17.6685 23.7871 17.4922 24.3748C17.3257 24.9527 17.0759 25.4964 16.7429 26.0057C16.4196 26.5053 16.018 26.9607 15.538 27.3722C15.0679 27.7836 14.534 28.1362 13.9365 28.43ZM14.5536 23.6108C14.8573 23.6108 15.1609 23.5471 15.4646 23.4197C15.778 23.2924 16.0621 23.1308 16.3168 22.9349C16.2972 22.9349 16.2923 22.8908 16.3021 22.8026C16.3217 22.7047 16.3314 22.6116 16.3314 22.5235C16.3314 22.2492 16.307 21.9847 16.258 21.7301C16.209 21.4656 16.1257 21.2354 16.0082 21.0395C15.8907 20.8338 15.7339 20.6722 15.538 20.5546C15.3421 20.4273 15.0972 20.3636 14.8034 20.3636C14.5585 20.3636 14.3234 20.4126 14.0981 20.5105C13.8826 20.5987 13.6867 20.726 13.5104 20.8926C13.3439 21.0493 13.2116 21.2403 13.1137 21.4656C13.0157 21.6909 12.9668 21.9309 12.9668 22.1855C12.9668 22.4108 13.0108 22.6116 13.099 22.788C13.1969 22.9545 13.3194 23.1014 13.4663 23.2287C13.6132 23.3561 13.7798 23.454 13.9659 23.5226C14.1618 23.5814 14.3577 23.6108 14.5536 23.6108Z" fill="white"/>
<path d="M21.0452 28.43C20.9865 28.43 20.9375 28.43 20.8983 28.43C20.8689 28.4398 20.8297 28.4447 20.7808 28.4447C20.5457 28.4447 20.3596 28.386 20.2224 28.2684C20.0951 28.1607 20.0314 28.0235 20.0314 27.857C20.0314 27.6709 20.1392 27.4848 20.3547 27.2987C20.9718 27.0146 21.5007 26.6571 21.9415 26.2261C22.3823 25.7951 22.73 25.276 22.9847 24.6686C22.7692 24.747 22.5537 24.8058 22.3382 24.845C22.1227 24.8743 21.9023 24.889 21.677 24.889C21.1579 24.889 20.7073 24.8058 20.3253 24.6393C19.9531 24.4727 19.6396 24.2621 19.3849 24.0075C19.1303 23.743 18.9392 23.4491 18.8119 23.1259C18.6944 22.8026 18.6356 22.4843 18.6356 22.1708C18.6356 21.8084 18.7091 21.446 18.856 21.0836C19.0029 20.7113 19.2135 20.3832 19.4878 20.0991C19.7718 19.8053 20.1196 19.5702 20.531 19.3939C20.9522 19.2078 21.437 19.1147 21.9856 19.1147C22.4949 19.1147 22.9357 19.2127 23.308 19.4086C23.6802 19.6045 23.9838 19.8641 24.2189 20.1873C24.454 20.5007 24.6254 20.8632 24.7332 21.2746C24.8409 21.686 24.885 22.1072 24.8654 22.5382C24.8654 23.1749 24.7772 23.7871 24.6009 24.3748C24.4344 24.9527 24.1846 25.4964 23.8516 26.0057C23.5283 26.5053 23.1267 26.9607 22.6468 27.3722C22.1766 27.7836 21.6428 28.1362 21.0452 28.43ZM21.6623 23.6108C21.966 23.6108 22.2696 23.5471 22.5733 23.4197C22.8868 23.2924 23.1708 23.1308 23.4255 22.9349C23.4059 22.9349 23.401 22.8908 23.4108 22.8026C23.4304 22.7047 23.4402 22.6116 23.4402 22.5235C23.4402 22.2492 23.4157 21.9847 23.3667 21.7301C23.3177 21.4656 23.2345 21.2354 23.1169 21.0395C22.9994 20.8338 22.8427 20.6722 22.6468 20.5546C22.4509 20.4273 22.206 20.3636 21.9121 20.3636C21.6672 20.3636 21.4322 20.4126 21.2069 20.5105C20.9914 20.5987 20.7955 20.726 20.6191 20.8926C20.4526 21.0493 20.3204 21.2403 20.2224 21.4656C20.1245 21.6909 20.0755 21.9309 20.0755 22.1855C20.0755 22.4108 20.1196 22.6116 20.2077 22.788C20.3057 22.9545 20.4281 23.1014 20.5751 23.2287C20.722 23.3561 20.8885 23.454 21.0746 23.5226C21.2705 23.5814 21.4664 23.6108 21.6623 23.6108Z" fill="white"/>
<path d="M32.8393 18.1447C32.9862 18.0075 33.1723 17.939 33.3976 17.939C33.5837 17.939 33.7405 17.9977 33.8678 18.1153C34.0049 18.2328 34.0735 18.3798 34.0735 18.5561C34.0735 18.6051 34.0686 18.654 34.0588 18.703C34.049 18.7422 34.0343 18.7863 34.0147 18.8352L30.8557 23.3754L27.4764 28.2093C27.3882 28.3269 27.2854 28.4053 27.1678 28.4444C27.0503 28.4836 26.9425 28.5032 26.8446 28.5032C26.6585 28.5032 26.4968 28.4493 26.3597 28.3416C26.2324 28.2338 26.1687 28.0869 26.1687 27.9008C26.1687 27.8322 26.1785 27.7637 26.1981 27.6951C26.2177 27.6167 26.252 27.5384 26.3009 27.46C26.8887 26.6372 27.447 25.8438 27.9759 25.0797C28.5049 24.3157 29.0338 23.5566 29.5628 22.8023C30.0819 22.0579 30.6109 21.3037 31.1496 20.5396C31.6883 19.7756 32.2467 18.9822 32.8246 18.1594L32.8393 18.1447ZM25.4487 20.2899C25.4683 19.9274 25.5467 19.614 25.6838 19.3495C25.821 19.085 25.9924 18.8646 26.1981 18.6883C26.4038 18.512 26.6389 18.3847 26.9033 18.3063C27.1678 18.2181 27.4323 18.1741 27.6968 18.1741C27.971 18.1741 28.2404 18.2181 28.5049 18.3063C28.7694 18.3945 29.0044 18.5267 29.2101 18.703C29.4256 18.8793 29.5971 19.0997 29.7244 19.3642C29.8517 19.6189 29.9154 19.9127 29.9154 20.2458C29.9154 20.5788 29.8468 20.8825 29.7097 21.1567C29.5824 21.431 29.4109 21.671 29.1954 21.8767C28.98 22.0726 28.7351 22.2244 28.4608 22.3322C28.1865 22.4399 27.9025 22.4938 27.6086 22.4938C27.3539 22.4938 27.0993 22.4448 26.8446 22.3469C26.5997 22.2489 26.3744 22.1069 26.1687 21.9208C25.9728 21.7347 25.8063 21.5045 25.6691 21.2302C25.5418 20.9559 25.4683 20.6425 25.4487 20.2899ZM30.5031 26.2405C30.5227 25.8879 30.5962 25.5842 30.7235 25.3295C30.8606 25.0651 31.0321 24.8496 31.2378 24.683C31.4435 24.5067 31.6737 24.3794 31.9283 24.301C32.183 24.2129 32.4426 24.1688 32.7071 24.1688C32.9715 24.1688 33.2311 24.2129 33.4858 24.301C33.7503 24.3892 33.9853 24.5214 34.191 24.6977C34.4065 24.8643 34.578 25.0749 34.7053 25.3295C34.8326 25.5744 34.8963 25.8634 34.8963 26.1964C34.8963 26.5392 34.8326 26.8478 34.7053 27.1221C34.5878 27.3963 34.4261 27.6265 34.2204 27.8126C34.0147 27.9987 33.7747 28.1408 33.5005 28.2387C33.236 28.3367 32.9617 28.3857 32.6777 28.3857C32.4328 28.3857 32.1879 28.3416 31.943 28.2534C31.6981 28.1751 31.4729 28.0477 31.2672 27.8714C31.0615 27.6951 30.89 27.4747 30.7529 27.2102C30.6158 26.936 30.5325 26.6127 30.5031 26.2405ZM27.638 19.4377C27.5205 19.4377 27.4176 19.467 27.3294 19.5258C27.2511 19.5748 27.1825 19.6434 27.1237 19.7315C27.065 19.8099 27.016 19.9029 26.9768 20.0107C26.9474 20.1086 26.9229 20.2066 26.9033 20.3045C26.9327 20.6082 27.0258 20.8286 27.1825 20.9657C27.3392 21.1029 27.5156 21.1714 27.7115 21.1714C27.8976 21.1714 28.069 21.098 28.2257 20.951C28.3922 20.8041 28.4755 20.5837 28.4755 20.2899C28.4755 20.0548 28.3873 19.854 28.211 19.6874C28.0445 19.5209 27.8535 19.4377 27.638 19.4377ZM32.6924 25.4618C32.4377 25.4618 32.2565 25.545 32.1487 25.7115C32.0508 25.8781 31.9871 26.0544 31.9577 26.2405C31.9871 26.5246 32.0753 26.7401 32.2222 26.887C32.3691 27.0241 32.5405 27.0927 32.7364 27.0927C32.903 27.0927 33.0646 27.0241 33.2213 26.887C33.378 26.7401 33.4564 26.5246 33.4564 26.2405C33.4564 25.9956 33.378 25.8046 33.2213 25.6675C33.0646 25.5303 32.8883 25.4618 32.6924 25.4618Z" fill="white"/>
</g>
<defs>
<clipPath id="clip0_43_1728">
<rect width="37" height="37" fill="white" transform="translate(5 5)"/>
</clipPath>
</defs>
</svg>
