<svg width="1198" height="33" viewBox="0 0 1198 33" fill="none" xmlns="http://www.w3.org/2000/svg">
<g clip-path="url(#clip0_41_123)">
<g clip-path="url(#clip1_41_123)">
<path d="M64.4802 23.7079C63.0127 23.7079 61.7192 23.3959 60.5992 22.7719C59.4794 22.1479 58.5912 21.2779 57.9347 20.1623C57.2976 19.0466 56.979 17.7701 56.979 16.333C56.979 14.8958 57.2976 13.6193 57.9347 12.5037C58.5912 11.388 59.4794 10.5181 60.5992 9.89405C61.7192 9.27003 63.0127 8.95801 64.4802 8.95801C66.3145 8.95801 67.8591 9.43076 69.1141 10.3763C70.3692 11.3029 71.1704 12.5887 71.518 14.2339H67.6082C67.415 13.5531 67.0289 13.0236 66.4496 12.6455C65.8897 12.2484 65.2236 12.0498 64.4512 12.0498C63.4279 12.0498 62.5591 12.428 61.8447 13.1844C61.1303 13.9408 60.7731 14.9903 60.7731 16.333C60.7731 17.6756 61.1303 18.7251 61.8447 19.4815C62.5591 20.2379 63.4279 20.6161 64.4512 20.6161C65.2236 20.6161 65.8897 20.427 66.4496 20.0488C67.0289 19.6706 67.415 19.1317 67.6082 18.432H71.518C71.1704 20.0204 70.3692 21.2968 69.1141 22.2613C67.8591 23.2257 66.3145 23.7079 64.4802 23.7079Z" fill="white"/>
<path d="M81.1223 23.7079C79.7321 23.7079 78.4771 23.3959 77.3572 22.7719C76.2566 22.1479 75.3781 21.2874 74.7217 20.1906C74.0844 19.0749 73.7659 17.789 73.7659 16.333C73.7659 14.8769 74.0941 13.6004 74.7506 12.5037C75.407 11.388 76.2856 10.5181 77.3862 9.89405C78.506 9.27003 79.7611 8.95801 81.1512 8.95801C82.5222 8.95801 83.7578 9.27003 84.8584 9.89405C85.9783 10.5181 86.8568 11.388 87.494 12.5037C88.1505 13.6004 88.4787 14.8769 88.4787 16.333C88.4787 17.789 88.1505 19.0749 87.494 20.1906C86.8568 21.2874 85.9783 22.1479 84.8584 22.7719C83.7386 23.3959 82.4931 23.7079 81.1223 23.7079ZM81.1223 20.5593C82.0877 20.5593 82.9276 20.2095 83.642 19.5098C84.3564 18.7913 84.7136 17.7323 84.7136 16.333C84.7136 14.9336 84.3564 13.8841 83.642 13.1844C82.9276 12.4658 82.0973 12.1065 81.1512 12.1065C80.1665 12.1065 79.317 12.4658 78.6026 13.1844C77.9075 13.8841 77.5599 14.9336 77.5599 16.333C77.5599 17.7323 77.9075 18.7913 78.6026 19.5098C79.317 20.2095 80.1569 20.5593 81.1223 20.5593Z" fill="white"/>
<path d="M91.214 23.3675V9.29838H94.4864L94.8049 11.1989C95.269 10.5181 95.8769 9.97915 96.6303 9.58204C97.402 9.16602 98.2909 8.95801 99.2942 8.95801C101.515 8.95801 103.089 9.7995 104.015 11.4825C104.537 10.7072 105.232 10.0926 106.1 9.63877C106.989 9.18492 107.954 8.95801 108.997 8.95801C110.87 8.95801 112.308 9.5064 113.312 10.6032C114.316 11.7 114.818 13.3073 114.818 15.4252V23.3675H111.111V15.7657C111.111 14.5554 110.87 13.6288 110.387 12.9859C109.924 12.3429 109.2 12.0214 108.215 12.0214C107.211 12.0214 106.4 12.3807 105.782 13.0993C105.183 13.8179 104.885 14.8202 104.885 16.106V23.3675H101.177V15.7657C101.177 14.5554 100.936 13.6288 100.453 12.9859C99.9707 12.3429 99.2273 12.0214 98.2231 12.0214C97.2381 12.0214 96.4371 12.3807 95.8192 13.0993C95.2205 13.8179 94.9212 14.8202 94.9212 16.106V23.3675H91.214Z" fill="white"/>
<path d="M117.758 29.6079V9.29838H121.06L121.466 11.3123C121.929 10.6883 122.538 10.1399 123.29 9.66714C124.063 9.19438 125.057 8.95801 126.273 8.95801C127.625 8.95801 128.832 9.27948 129.894 9.92242C130.956 10.5654 131.795 11.4447 132.413 12.5604C133.031 13.6761 133.341 14.9431 133.341 16.3613C133.341 17.7796 133.031 19.0466 132.413 20.1623C131.795 21.259 130.956 22.1289 129.894 22.7719C128.832 23.3959 127.625 23.7079 126.273 23.7079C125.192 23.7079 124.246 23.5094 123.435 23.1123C122.625 22.7151 121.967 22.1573 121.466 21.4387V29.6079H117.758ZM125.492 20.531C126.669 20.531 127.645 20.1433 128.416 19.368C129.189 18.5928 129.575 17.5905 129.575 16.3613C129.575 15.1322 129.189 14.1205 128.416 13.3262C127.645 12.532 126.669 12.1349 125.492 12.1349C124.294 12.1349 123.309 12.532 122.538 13.3262C121.784 14.1016 121.408 15.1038 121.408 16.333C121.408 17.5621 121.784 18.5738 122.538 19.368C123.309 20.1433 124.294 20.531 125.492 20.531Z" fill="white"/>
<path d="M141.025 23.7079C139.79 23.7079 138.775 23.5188 137.984 23.1406C137.193 22.7435 136.604 22.2234 136.218 21.5805C135.831 20.9376 135.638 20.2284 135.638 19.4531C135.638 18.1483 136.159 17.0893 137.202 16.2762C138.244 15.4631 139.809 15.0565 141.894 15.0565H145.543V14.7162C145.543 13.7517 145.263 13.0426 144.704 12.5887C144.143 12.1349 143.449 11.908 142.618 11.908C141.865 11.908 141.209 12.0876 140.648 12.4469C140.089 12.7873 139.741 13.2979 139.606 13.9787H135.986C136.082 12.9575 136.43 12.0687 137.029 11.3123C137.647 10.5559 138.438 9.97915 139.403 9.58204C140.369 9.16602 141.45 8.95801 142.647 8.95801C144.694 8.95801 146.306 9.45913 147.484 10.4614C148.662 11.4636 149.251 12.8819 149.251 14.7162V23.3675H146.093L145.746 21.0983C145.322 21.8547 144.723 22.4788 143.95 22.9704C143.198 23.4621 142.222 23.7079 141.025 23.7079ZM141.865 20.8713C142.927 20.8713 143.748 20.531 144.326 19.8503C144.925 19.1695 145.302 18.328 145.456 17.3257H142.3C141.315 17.3257 140.61 17.5054 140.185 17.8647C139.76 18.2051 139.548 18.6305 139.548 19.1411C139.548 19.6895 139.76 20.115 140.185 20.4175C140.61 20.7201 141.17 20.8713 141.865 20.8713Z" fill="white"/>
<path d="M152.209 23.3675V9.29838H155.482L155.771 11.6811C156.215 10.849 156.852 10.1872 157.683 9.6955C158.532 9.20383 159.527 8.95801 160.666 8.95801C162.442 8.95801 163.823 9.5064 164.807 10.6032C165.792 11.7 166.285 13.3073 166.285 15.4252V23.3675H162.577V15.7657C162.577 14.5554 162.326 13.6288 161.824 12.9859C161.322 12.3429 160.541 12.0214 159.479 12.0214C158.436 12.0214 157.576 12.3807 156.901 13.0993C156.244 13.8179 155.916 14.8202 155.916 16.106V23.3675H152.209Z" fill="white"/>
<path d="M170.565 29.6078L173.896 22.4314H173.027L167.437 9.29834H171.463L175.488 19.1978L179.688 9.29834H183.627L174.504 29.6078H170.565Z" fill="white"/>
<path d="M14.7259 27.1624C13.7572 28.111 12.1865 28.1097 11.2195 27.1594L1.96353 18.0631C0.998942 17.1151 1.00029 15.5812 1.96653 14.6349L11.2225 5.56974C12.1888 4.62341 13.755 4.62209 14.7228 5.5668L24.0106 14.632C24.9809 15.579 24.9823 17.1174 24.0136 18.066L14.7259 27.1624Z" fill="#0328EE"/>
<path d="M27.5204 27.1584C26.5536 28.1087 24.9827 28.11 24.0141 27.1614L14.7263 18.065C13.7577 17.1164 13.7591 15.578 14.7293 14.631L24.0171 5.56582C24.985 4.62112 26.5512 4.62243 27.5174 5.56876L36.7734 14.6339C37.7397 15.5802 37.741 17.1142 36.7765 18.0621L27.5204 27.1584Z" fill="white"/>
<path d="M37.0045 27.1603C36.0368 28.1096 34.4662 28.1096 33.4984 27.1603L24.2249 18.0637C23.2582 17.1154 23.2595 15.579 24.2279 14.6323L33.5014 5.56692C34.4685 4.62157 36.0345 4.62157 37.0015 5.56692L46.275 14.6323C47.2434 15.579 47.2448 17.1154 46.278 18.0637L37.0045 27.1603Z" fill="#0328EE"/>
</g>
</g>
<g clip-path="url(#clip2_41_123)">
<path d="M318.303 17.896C317.04 19.9449 315.244 21.1237 312.914 21.1237C309.546 21.1237 307.076 18.4012 307.076 14.8929C307.076 11.3846 309.434 8.69021 312.97 8.69021C315.216 8.69021 317.236 9.95319 318.247 11.8617L321.502 9.2796C319.846 6.33263 316.843 4.56445 313.026 4.56445C306.908 4.56445 302.614 9.1112 302.614 14.8929C302.614 20.6746 306.992 25.2494 312.97 25.2494C316.731 25.2494 319.875 23.2567 321.587 20.422L318.303 17.896Z" fill="white"/>
<path d="M330.502 10.1777C326.012 10.1777 322.784 13.4335 322.784 17.6996C322.784 21.9376 326.012 25.2494 330.502 25.2494C334.993 25.2494 338.22 21.9376 338.22 17.6996C338.22 13.4335 334.993 10.1777 330.502 10.1777ZM330.502 13.9667C332.439 13.9667 333.898 15.4543 333.898 17.6996C333.898 19.9449 332.439 21.4605 330.502 21.4605C328.566 21.4605 327.106 19.9449 327.106 17.6996C327.106 15.4543 328.566 13.9667 330.502 13.9667Z" fill="white"/>
<path d="M341.009 10.5145V24.9126H345.275V17.4189C345.275 15.5385 346.257 13.9387 348.053 13.9387C349.625 13.9387 350.635 14.921 350.635 16.8014V24.9126H354.902V17.4189C354.902 15.5385 355.884 13.9387 357.68 13.9387C359.252 13.9387 360.234 14.921 360.234 16.8014V24.9126H364.5V16.1559C364.5 12.423 362.395 10.1777 358.943 10.1777C356.501 10.1777 355.126 11.2443 354.088 12.7037C353.105 11.1039 351.534 10.1777 349.316 10.1777C347.436 10.1777 346.033 10.9075 345.106 12.3669V10.5145H341.009Z" fill="white"/>
<path d="M375.693 13.9387C377.517 13.9387 379.033 15.4262 379.033 17.7557C379.033 20.001 377.517 21.4885 375.693 21.4885C373.785 21.4885 372.297 20.0291 372.297 17.7557C372.297 15.3981 373.785 13.9387 375.693 13.9387ZM372.101 10.5145H368.143V30.5259H372.409V23.3409C373.307 24.6881 375.02 25.2494 376.563 25.2494C380.492 25.2494 383.327 21.9937 383.327 17.6996C383.327 13.2651 380.268 10.1777 376.591 10.1777C375.188 10.1777 373.223 10.7671 372.101 12.5072V10.5145Z" fill="white"/>
<path d="M393.589 15.9594L389.66 16.7172C386.628 17.3628 384.973 18.8222 384.973 20.9553C384.973 23.4532 386.937 25.2494 389.744 25.2494C391.652 25.2494 393.056 24.4074 393.729 23.1444V24.9126H397.687V15.8472C397.687 12.3388 395.301 10.1777 391.287 10.1777C388.593 10.1777 386.432 11.3004 385.113 12.9002L387.33 15.5946C388.2 14.6123 389.435 13.8545 391.035 13.8545C392.494 13.8545 393.589 14.4158 393.589 15.8472V15.9594ZM390.698 22.0779C389.688 22.0779 389.042 21.5166 389.042 20.7027C389.042 19.9168 389.604 19.4116 390.754 19.2151L393.617 18.6538V19.0748C393.617 20.7869 392.466 22.0779 390.698 22.0779Z" fill="white"/>
<path d="M401.28 10.5145V24.9126H405.546V17.4189C405.546 15.5385 406.529 13.9387 408.381 13.9387C409.953 13.9387 410.963 14.921 410.963 16.8014V24.9126H415.229V16.1559C415.229 12.423 413.096 10.1777 409.644 10.1777C407.707 10.1777 406.304 10.9075 405.378 12.3669V10.5145H401.28Z" fill="white"/>
<path d="M422.195 24.3792L422.027 24.8563C421.409 26.9051 420.371 27.27 419.248 27.27C418.771 27.27 418.041 27.2139 417.283 26.7929V30.3292C417.929 30.638 418.855 30.8625 419.865 30.8625C422.588 30.8625 424.328 29.5714 425.759 26.0912L432.046 10.5144H427.696L424.328 19.9447L420.988 10.5144H416.526L422.195 24.3792Z" fill="white"/>
<path d="M277.21 2.61499H272.731C272.263 2.61499 271.884 2.9942 271.884 3.46199V27.3092C271.884 27.777 272.263 28.1562 272.731 28.1562H277.21C277.678 28.1562 278.057 27.777 278.057 27.3092V3.46199C278.057 2.9942 277.678 2.61499 277.21 2.61499Z" fill="white"/>
<path d="M286.339 28.1556C289.237 28.1556 291.586 25.8063 291.586 22.9084C291.586 20.0104 289.237 17.6611 286.339 17.6611C283.441 17.6611 281.092 20.0104 281.092 22.9084C281.092 25.8063 283.441 28.1556 286.339 28.1556Z" fill="#0328EE"/>
<path d="M286.339 13.1095C289.237 13.1095 291.586 10.7602 291.586 7.86223C291.586 4.96426 289.237 2.61499 286.339 2.61499C283.441 2.61499 281.092 4.96426 281.092 7.86223C281.092 10.7602 283.441 13.1095 286.339 13.1095Z" fill="#0328EE"/>
<path d="M263.602 28.1556C266.5 28.1556 268.849 25.8063 268.849 22.9084C268.849 20.0104 266.5 17.6611 263.602 17.6611C260.704 17.6611 258.354 20.0104 258.354 22.9084C258.354 25.8063 260.704 28.1556 263.602 28.1556Z" fill="#0328EE"/>
</g>
<g clip-path="url(#clip3_41_123)">
<path d="M532.602 14.7748C528.842 14.7748 525.789 11.734 525.789 7.99678C525.789 7.50931 525.847 7.04506 525.94 6.58081H516.887C513.382 6.58081 510.539 9.41274 510.539 12.8946V24.5589C510.539 28.0524 513.382 30.8727 516.887 30.8727H528.61C532.126 30.8727 534.958 28.0408 534.958 24.5589V14.3454C534.239 14.6123 533.438 14.7748 532.602 14.7748Z" fill="#0328EE"/>
<path d="M534.969 24.5589V14.3454C534.238 14.6123 533.437 14.7748 532.613 14.7748C528.852 14.7748 525.8 11.734 525.8 7.99678C525.8 7.50931 525.858 7.04506 525.951 6.58081H516.898C513.416 6.58081 510.596 9.36632 510.549 12.825C518.906 16.272 527.495 20.4619 534.923 25.3597C534.946 25.0928 534.969 24.8258 534.969 24.5589Z" fill="#0328EE"/>
<path d="M533.124 12.4339C535.851 12.4339 538.056 10.2403 538.056 7.52444C538.056 4.82018 535.851 2.61499 533.124 2.61499C530.396 2.61499 528.191 4.80857 528.191 7.52444C528.191 10.2287 530.396 12.4339 533.124 12.4339Z" fill="white"/>
<path d="M563.009 18.6791C562.815 19.5041 562.487 20.3049 562.026 21.0815C561.565 21.8338 560.995 22.5132 560.315 23.1199C559.636 23.7023 558.859 24.1755 557.986 24.5395C557.112 24.8793 556.178 25.0491 555.183 25.0491C554.042 25.0491 552.962 24.8307 551.943 24.3939C550.948 23.9328 550.062 23.314 549.286 22.5375C548.534 21.761 547.927 20.8631 547.466 19.8439C547.029 18.8004 546.811 17.6841 546.811 16.495C546.811 15.306 547.029 14.2018 547.466 13.1826C547.927 12.1391 548.534 11.2291 549.286 10.4525C550.062 9.676 550.948 9.06933 551.943 8.63252C552.962 8.17145 554.042 7.94092 555.183 7.94092C556.178 7.94092 557.112 8.12292 557.986 8.48692C558.859 8.82666 559.636 9.29986 560.315 9.90654C560.995 10.4889 561.565 11.1684 562.026 11.945C562.487 12.6973 562.815 13.4859 563.009 14.311H558.823C558.629 13.8742 558.362 13.4859 558.022 13.1462C557.731 12.855 557.355 12.5881 556.894 12.3454C556.432 12.0784 555.862 11.945 555.183 11.945C553.994 11.945 552.999 12.3575 552.198 13.1826C551.397 14.0077 550.997 15.1118 550.997 16.495C550.997 17.8782 551.397 18.9824 552.198 19.8075C552.999 20.6325 553.994 21.0451 555.183 21.0451C555.862 21.0451 556.432 20.9237 556.894 20.6811C557.355 20.4384 557.731 20.1715 558.022 19.8803C558.362 19.5405 558.629 19.1401 558.823 18.6791H563.009Z" fill="white"/>
<path d="M569.925 16.495C569.925 17.8782 570.325 18.9824 571.126 19.8075C571.927 20.6325 572.922 21.0451 574.111 21.0451C575.3 21.0451 576.295 20.6325 577.096 19.8075C577.896 18.9824 578.297 17.8782 578.297 16.495C578.297 15.1118 577.896 14.0077 577.096 13.1826C576.295 12.3575 575.3 11.945 574.111 11.945C572.922 11.945 571.927 12.3575 571.126 13.1826C570.325 14.0077 569.925 15.1118 569.925 16.495ZM582.483 16.495C582.483 17.6841 582.252 18.8004 581.791 19.8439C581.354 20.8631 580.748 21.761 579.971 22.5375C579.219 23.314 578.333 23.9328 577.314 24.3939C576.319 24.8307 575.251 25.0491 574.111 25.0491C572.97 25.0491 571.89 24.8307 570.871 24.3939C569.876 23.9328 568.99 23.314 568.214 22.5375C567.462 21.761 566.855 20.8631 566.394 19.8439C565.957 18.8004 565.739 17.6841 565.739 16.495C565.739 15.306 565.957 14.2018 566.394 13.1826C566.855 12.1391 567.462 11.2291 568.214 10.4525C568.99 9.676 569.876 9.06933 570.871 8.63252C571.89 8.17145 572.97 7.94092 574.111 7.94092C575.251 7.94092 576.319 8.17145 577.314 8.63252C578.333 9.06933 579.219 9.676 579.971 10.4525C580.748 11.2291 581.354 12.1391 581.791 13.1826C582.252 14.2018 582.483 15.306 582.483 16.495Z" fill="white"/>
<path d="M594.114 7.94092C594.963 7.94092 595.691 8.06225 596.298 8.30492C596.905 8.52332 597.402 8.76599 597.791 9.03293C598.227 9.3484 598.579 9.7124 598.846 10.1249C599.234 9.7124 599.683 9.3484 600.193 9.03293C600.63 8.76599 601.152 8.52332 601.758 8.30492C602.365 8.06225 603.032 7.94092 603.76 7.94092C605.58 7.94092 607.036 8.52332 608.128 9.68813C609.22 10.8529 609.766 12.5759 609.766 14.857V24.8671H605.58V15.221C605.58 14.2018 605.301 13.401 604.743 12.8186C604.209 12.2362 603.578 11.945 602.85 11.945C602.122 11.945 601.479 12.2362 600.921 12.8186C600.387 13.401 600.12 14.2018 600.12 15.221V24.8671H595.934V15.221C595.934 14.2018 595.655 13.401 595.097 12.8186C594.563 12.2362 593.932 11.945 593.204 11.945C592.476 11.945 591.833 12.2362 591.275 12.8186C590.741 13.401 590.474 14.2018 590.474 15.221V24.8671H586.288V8.12292H589.382L590.11 9.76093C590.45 9.4212 590.826 9.11786 591.239 8.85092C591.578 8.63252 591.991 8.42625 592.476 8.23212C592.961 8.03798 593.507 7.94092 594.114 7.94092Z" fill="white"/>
<path d="M622.87 7.94092C623.914 7.94092 624.909 8.15932 625.855 8.59612C626.801 9.00866 627.626 9.6032 628.33 10.3797C629.058 11.132 629.629 12.0299 630.041 13.0734C630.478 14.1169 630.696 15.2574 630.696 16.495C630.696 17.7326 630.478 18.8732 630.041 19.9167C629.629 20.9601 629.058 21.8702 628.33 22.6467C627.626 23.399 626.801 23.9935 625.855 24.4303C624.909 24.8429 623.914 25.0491 622.87 25.0491C622.166 25.0491 621.548 24.9642 621.014 24.7943C620.504 24.6245 620.055 24.4424 619.667 24.2483C619.23 24.0056 618.842 23.7266 618.502 23.4111V30.6912H614.316V8.12292H617.41L618.138 9.76093C618.502 9.4212 618.927 9.11786 619.412 8.85092C619.825 8.63252 620.322 8.42625 620.905 8.23212C621.487 8.03798 622.142 7.94092 622.87 7.94092ZM618.138 16.495C618.138 17.8782 618.539 18.9824 619.339 19.8075C620.14 20.6325 621.135 21.0451 622.324 21.0451C623.513 21.0451 624.508 20.6325 625.309 19.8075C626.11 18.9824 626.51 17.8782 626.51 16.495C626.51 15.1118 626.11 14.0077 625.309 13.1826C624.508 12.3575 623.513 11.945 622.324 11.945C621.135 11.945 620.14 12.3575 619.339 13.1826C618.539 14.0077 618.138 15.1118 618.138 16.495Z" fill="white"/>
<path d="M641.44 7.94092C642.386 7.94092 643.26 8.11078 644.061 8.45052C644.862 8.76599 645.553 9.21493 646.136 9.79733C646.718 10.3797 647.167 11.0713 647.483 11.8722C647.822 12.673 647.992 13.5466 647.992 14.493V24.8671H644.898L644.17 23.2291C643.782 23.5688 643.357 23.8722 642.896 24.1391C642.484 24.3818 641.986 24.6002 641.404 24.7943C640.821 24.9642 640.166 25.0491 639.438 25.0491C637.618 25.0491 636.223 24.6123 635.252 23.7387C634.281 22.8408 633.796 21.7003 633.796 20.3171C633.796 19.492 633.954 18.7397 634.269 18.0602C634.609 17.3565 635.167 16.762 635.944 16.2766C636.72 15.767 637.739 15.3788 639.001 15.1118C640.287 14.8206 641.889 14.675 643.806 14.675C643.806 13.7529 643.551 13.037 643.042 12.5274C642.556 12.0178 641.901 11.763 641.076 11.763C640.518 11.763 640.069 11.86 639.729 12.0542C639.414 12.2483 639.159 12.4546 638.965 12.673C638.746 12.9399 638.601 13.2433 638.528 13.583H634.342C634.439 12.8065 634.657 12.0784 634.997 11.3989C635.361 10.7195 635.847 10.1249 636.453 9.61533C637.06 9.10573 637.776 8.70532 638.601 8.41412C639.45 8.09865 640.397 7.94092 641.44 7.94092ZM640.166 21.7731C641.258 21.7731 642.132 21.4576 642.787 20.8267C643.466 20.1715 643.806 19.3343 643.806 18.3151V17.587C642.568 17.587 641.574 17.6477 640.821 17.769C640.069 17.8661 639.474 18.0238 639.038 18.2423C638.625 18.4364 638.346 18.6791 638.2 18.9703C638.055 19.2615 637.982 19.5891 637.982 19.9531C637.982 20.4141 638.188 20.8388 638.601 21.2271C639.013 21.5911 639.535 21.7731 640.166 21.7731Z" fill="white"/>
<path d="M661.082 7.94092C662.077 7.94092 662.987 8.11078 663.812 8.45052C664.637 8.76599 665.341 9.2392 665.923 9.87014C666.53 10.4768 666.991 11.2169 667.306 12.0906C667.646 12.9642 667.816 13.947 667.816 15.039V24.8671H663.63V15.585C663.63 14.493 663.302 13.6194 662.647 12.9642C662.016 12.2847 661.191 11.945 660.172 11.945C659.153 11.945 658.316 12.2847 657.66 12.9642C657.029 13.6194 656.714 14.493 656.714 15.585V24.8671H652.528V8.12292H655.622L656.35 9.76093C656.763 9.4212 657.211 9.11786 657.697 8.85092C658.109 8.63252 658.595 8.42625 659.153 8.23212C659.735 8.03798 660.378 7.94092 661.082 7.94092Z" fill="white"/>
<path d="M670.56 8.1228H674.928L679.114 19.043L682.936 8.1228H687.305C686.115 11.1804 685.036 13.9469 684.065 16.4221C683.652 17.4899 683.24 18.5334 682.827 19.5526C682.439 20.5718 682.087 21.5061 681.772 22.3554C681.456 23.1805 681.189 23.8721 680.971 24.4302C680.752 24.9884 680.619 25.316 680.57 25.413C680.158 26.408 679.745 27.2452 679.333 27.9246C678.945 28.6284 678.52 29.1987 678.059 29.6355C677.598 30.0723 677.1 30.3877 676.566 30.5819C676.033 30.776 675.426 30.8731 674.746 30.8731C674.552 30.8731 674.358 30.8609 674.164 30.8367C673.994 30.8367 673.849 30.8245 673.727 30.8003C673.557 30.776 673.412 30.7396 673.29 30.6911V27.233C674.213 27.233 674.916 27.0268 675.402 26.6142C675.911 26.2017 676.299 25.68 676.566 25.049L676.93 24.139L670.56 8.1228Z" fill="white"/>
</g>
<g clip-path="url(#clip4_41_123)">
<path d="M803.049 14.0431C803.049 12.143 803.473 10.4459 804.321 8.95164C805.188 7.43896 806.36 6.26755 807.836 5.43742C809.33 4.58884 810.999 4.16455 812.844 4.16455C815.002 4.16455 816.893 4.71797 818.517 5.82481C820.14 6.93166 821.274 8.46278 821.92 10.4182H817.465C817.022 9.49584 816.395 8.80406 815.583 8.34288C814.79 7.88169 813.868 7.6511 812.816 7.6511C811.691 7.6511 810.686 7.91859 809.8 8.45356C808.933 8.97009 808.251 9.70798 807.753 10.6672C807.273 11.6265 807.033 12.7518 807.033 14.0431C807.033 15.3159 807.273 16.4412 807.753 17.4189C808.251 18.3782 808.933 19.1253 809.8 19.6603C810.686 20.1768 811.691 20.4351 812.816 20.4351C813.868 20.4351 814.79 20.2045 815.583 19.7433C816.395 19.2637 817.022 18.5627 817.465 17.6403H821.92C821.274 19.6142 820.14 21.1545 818.517 22.2614C816.912 23.3498 815.021 23.894 812.844 23.894C810.999 23.894 809.33 23.4789 807.836 22.6488C806.36 21.8002 805.188 20.6288 804.321 19.1345C803.473 17.6403 803.049 15.9432 803.049 14.0431Z" fill="white"/>
<path d="M832.036 23.9773C830.56 23.9773 829.232 23.6544 828.051 23.0088C826.871 22.3447 825.939 21.4131 825.257 20.214C824.593 19.0149 824.26 17.6314 824.26 16.0634C824.26 14.4953 824.602 13.1118 825.284 11.9127C825.985 10.7136 826.935 9.79122 828.134 9.14557C829.334 8.48146 830.671 8.14941 832.147 8.14941C833.623 8.14941 834.96 8.48146 836.159 9.14557C837.358 9.79122 838.299 10.7136 838.981 11.9127C839.682 13.1118 840.033 14.4953 840.033 16.0634C840.033 17.6314 839.673 19.0149 838.954 20.214C838.253 21.4131 837.294 22.3447 836.076 23.0088C834.877 23.6544 833.53 23.9773 832.036 23.9773ZM832.036 20.6014C832.737 20.6014 833.392 20.4354 834.001 20.1033C834.628 19.7528 835.126 19.2363 835.495 18.5538C835.864 17.8712 836.048 17.0411 836.048 16.0634C836.048 14.606 835.661 13.49 834.886 12.7152C834.13 11.9219 833.198 11.5253 832.091 11.5253C830.985 11.5253 830.053 11.9219 829.297 12.7152C828.559 13.49 828.19 14.606 828.19 16.0634C828.19 17.5207 828.55 18.646 829.269 19.4392C830.007 20.214 830.929 20.6014 832.036 20.6014Z" fill="white"/>
<path d="M861.912 8.177C863.794 8.177 865.307 8.75809 866.45 9.92027C867.612 11.064 868.194 12.6689 868.194 14.7351V23.7281H864.32V15.2608C864.32 14.0617 864.015 13.1486 863.406 12.5214C862.798 11.8757 861.968 11.5529 860.916 11.5529C859.865 11.5529 859.025 11.8757 858.398 12.5214C857.789 13.1486 857.485 14.0617 857.485 15.2608V23.7281H853.611V15.2608C853.611 14.0617 853.307 13.1486 852.698 12.5214C852.089 11.8757 851.259 11.5529 850.207 11.5529C849.137 11.5529 848.289 11.8757 847.662 12.5214C847.053 13.1486 846.748 14.0617 846.748 15.2608V23.7281H842.875V8.39837H846.748V10.2523C847.247 9.60667 847.883 9.09937 848.658 8.73042C849.451 8.36147 850.318 8.177 851.259 8.177C852.458 8.177 853.528 8.43526 854.469 8.95179C855.41 9.44987 856.138 10.1693 856.655 11.1101C857.153 10.2247 857.872 9.51443 858.813 8.97946C859.772 8.44449 860.805 8.177 861.912 8.177Z" fill="white"/>
<path d="M875.744 10.6121C876.242 9.91113 876.924 9.33004 877.791 8.86886C878.677 8.38923 879.682 8.14941 880.807 8.14941C882.117 8.14941 883.298 8.47224 884.349 9.1179C885.419 9.76355 886.259 10.6859 886.867 11.885C887.495 13.0657 887.808 14.44 887.808 16.008C887.808 17.576 887.495 18.9688 886.867 20.1863C886.259 21.3854 885.419 22.317 884.349 22.9811C883.298 23.6452 882.117 23.9773 880.807 23.9773C879.682 23.9773 878.686 23.7467 877.819 23.2855C876.97 22.8243 876.279 22.2432 875.744 21.5422V31.0334H871.87V8.39845H875.744V10.6121ZM883.851 16.008C883.851 15.0857 883.658 14.2924 883.27 13.6283C882.901 12.9458 882.403 12.4292 881.776 12.0787C881.167 11.7282 880.503 11.5529 879.784 11.5529C879.083 11.5529 878.419 11.7374 877.791 12.1064C877.183 12.4569 876.684 12.9734 876.297 13.656C875.928 14.3385 875.744 15.141 875.744 16.0634C875.744 16.9857 875.928 17.7882 876.297 18.4707C876.684 19.1533 877.183 19.679 877.791 20.048C878.419 20.3985 879.083 20.5737 879.784 20.5737C880.503 20.5737 881.167 20.3893 881.776 20.0203C882.403 19.6514 882.901 19.1256 883.27 18.4431C883.658 17.7605 883.851 16.9488 883.851 16.008Z" fill="white"/>
<path d="M889.627 16.008C889.627 14.4584 889.932 13.0841 890.54 11.885C891.167 10.6859 892.007 9.76355 893.058 9.1179C894.128 8.47224 895.318 8.14941 896.628 8.14941C897.772 8.14941 898.768 8.38 899.616 8.84118C900.483 9.30237 901.175 9.88346 901.692 10.5845V8.39845H905.593V23.7282H901.692V21.4869C901.194 22.2063 900.502 22.8059 899.616 23.2855C898.749 23.7467 897.744 23.9773 896.6 23.9773C895.309 23.9773 894.128 23.6452 893.058 22.9811C892.007 22.317 891.167 21.3854 890.54 20.1863C889.932 18.9688 889.627 17.576 889.627 16.008ZM901.692 16.0634C901.692 15.1225 901.507 14.3201 901.138 13.656C900.769 12.9734 900.271 12.4569 899.644 12.1064C899.017 11.7374 898.344 11.5529 897.624 11.5529C896.905 11.5529 896.241 11.7282 895.632 12.0787C895.023 12.4292 894.525 12.9458 894.138 13.6283C893.769 14.2924 893.584 15.0857 893.584 16.008C893.584 16.9304 893.769 17.7421 894.138 18.4431C894.525 19.1256 895.023 19.6514 895.632 20.0203C896.259 20.3893 896.923 20.5737 897.624 20.5737C898.344 20.5737 899.017 20.3985 899.644 20.048C900.271 19.679 900.769 19.1625 901.138 18.4984C901.507 17.8159 901.692 17.0042 901.692 16.0634Z" fill="white"/>
<path d="M917.872 8.177C919.698 8.177 921.174 8.75809 922.299 9.92027C923.425 11.064 923.987 12.6689 923.987 14.7351V23.7281H920.113V15.2608C920.113 14.0433 919.809 13.1117 919.2 12.466C918.591 11.8019 917.761 11.4699 916.71 11.4699C915.64 11.4699 914.791 11.8019 914.164 12.466C913.555 13.1117 913.251 14.0433 913.251 15.2608V23.7281H909.377V8.39837H913.251V10.3077C913.767 9.64356 914.422 9.12704 915.215 8.75809C916.027 8.3707 916.913 8.177 917.872 8.177Z" fill="white"/>
<path d="M942.337 8.39844L932.846 30.9779H928.723L932.043 23.3407L925.9 8.39844H930.245L934.201 19.1071L938.214 8.39844H942.337Z" fill="white"/>
<path d="M774.003 30.8288C768.088 30.8288 763.312 26.0162 763.312 20.1381C763.312 14.2601 768.088 9.44751 774.003 9.44751C779.881 9.44751 784.694 14.2234 784.694 20.1381C784.657 26.0162 779.881 30.8288 774.003 30.8288Z" fill="#0328EE"/>
<path d="M789.805 2.61499H775.725C774.774 2.61499 774.003 3.38584 774.003 4.33672V18.4172C774.003 19.3681 774.774 20.1389 775.725 20.1389H789.805C790.756 20.1389 791.527 19.3681 791.527 18.4172V4.33672C791.527 3.38584 790.756 2.61499 789.805 2.61499Z" fill="white"/>
</g>
<g clip-path="url(#clip5_41_123)">
<path d="M1054.99 14.4083C1054.99 12.5083 1055.42 10.8111 1056.26 9.31686C1057.13 7.80418 1058.3 6.63278 1059.78 5.80265C1061.27 4.95407 1062.94 4.52979 1064.79 4.52979C1066.95 4.52979 1068.84 5.08321 1070.46 6.19005C1072.08 7.29689 1073.22 8.82802 1073.86 10.7834H1069.41C1068.97 9.86107 1068.34 9.16929 1067.53 8.70811C1066.73 8.24693 1065.81 8.01632 1064.76 8.01632C1063.63 8.01632 1062.63 8.28382 1061.74 8.81879C1060.88 9.33532 1060.19 10.0732 1059.7 11.0325C1059.22 11.9917 1058.98 13.117 1058.98 14.4083C1058.98 15.6812 1059.22 16.8065 1059.7 17.7842C1060.19 18.7435 1060.88 19.4906 1061.74 20.0256C1062.63 20.5421 1063.63 20.8003 1064.76 20.8003C1065.81 20.8003 1066.73 20.5698 1067.53 20.1086C1068.34 19.6289 1068.97 18.9279 1069.41 18.0056H1073.86C1073.22 19.9794 1072.08 21.5198 1070.46 22.6266C1068.85 23.715 1066.96 24.2592 1064.79 24.2592C1062.94 24.2592 1061.27 23.8442 1059.78 23.014C1058.3 22.1654 1057.13 20.994 1056.26 19.4998C1055.42 18.0056 1054.99 16.3084 1054.99 14.4083Z" fill="white"/>
<path d="M1083.98 24.3422C1082.5 24.3422 1081.17 24.0194 1079.99 23.3737C1078.81 22.7096 1077.88 21.7781 1077.2 20.579C1076.54 19.3799 1076.2 17.9963 1076.2 16.4283C1076.2 14.8603 1076.54 13.4767 1077.23 12.2777C1077.93 11.0786 1078.88 10.1562 1080.08 9.51056C1081.28 8.84645 1082.61 8.5144 1084.09 8.5144C1085.57 8.5144 1086.9 8.84645 1088.1 9.51056C1089.3 10.1562 1090.24 11.0786 1090.92 12.2777C1091.63 13.4767 1091.98 14.8603 1091.98 16.4283C1091.98 17.9963 1091.62 19.3799 1090.9 20.579C1090.2 21.7781 1089.24 22.7096 1088.02 23.3737C1086.82 24.0194 1085.47 24.3422 1083.98 24.3422ZM1083.98 20.9664C1084.68 20.9664 1085.33 20.8003 1085.94 20.4683C1086.57 20.1178 1087.07 19.6013 1087.44 18.9187C1087.81 18.2362 1087.99 17.406 1087.99 16.4283C1087.99 14.971 1087.6 13.8549 1086.83 13.0801C1086.07 12.2869 1085.14 11.8903 1084.03 11.8903C1082.93 11.8903 1082 12.2869 1081.24 13.0801C1080.5 13.8549 1080.13 14.971 1080.13 16.4283C1080.13 17.8857 1080.49 19.011 1081.21 19.8042C1081.95 20.579 1082.87 20.9664 1083.98 20.9664Z" fill="white"/>
<path d="M1113.86 8.54199C1115.74 8.54199 1117.25 9.12308 1118.39 10.2853C1119.56 11.429 1120.14 13.0339 1120.14 15.1V24.0931H1116.26V15.6258C1116.26 14.4267 1115.96 13.5135 1115.35 12.8863C1114.74 12.2407 1113.91 11.9178 1112.86 11.9178C1111.81 11.9178 1110.97 12.2407 1110.34 12.8863C1109.73 13.5135 1109.43 14.4267 1109.43 15.6258V24.0931H1105.55V15.6258C1105.55 14.4267 1105.25 13.5135 1104.64 12.8863C1104.03 12.2407 1103.2 11.9178 1102.15 11.9178C1101.08 11.9178 1100.23 12.2407 1099.6 12.8863C1099 13.5135 1098.69 14.4267 1098.69 15.6258V24.0931H1094.82V8.76336H1098.69V10.6173C1099.19 9.97166 1099.83 9.46436 1100.6 9.09541C1101.39 8.72647 1102.26 8.54199 1103.2 8.54199C1104.4 8.54199 1105.47 8.80026 1106.41 9.31678C1107.35 9.81486 1108.08 10.5343 1108.6 11.4751C1109.1 10.5897 1109.82 9.87943 1110.76 9.34445C1111.72 8.80948 1112.75 8.54199 1113.86 8.54199Z" fill="white"/>
<path d="M1127.69 10.9771C1128.18 10.2761 1128.87 9.69503 1129.73 9.23385C1130.62 8.75422 1131.62 8.5144 1132.75 8.5144C1134.06 8.5144 1135.24 8.83723 1136.29 9.48289C1137.36 10.1285 1138.2 11.0509 1138.81 12.25C1139.44 13.4306 1139.75 14.805 1139.75 16.373C1139.75 17.941 1139.44 19.3338 1138.81 20.5513C1138.2 21.7504 1137.36 22.682 1136.29 23.3461C1135.24 24.0102 1134.06 24.3422 1132.75 24.3422C1131.62 24.3422 1130.63 24.1116 1129.76 23.6505C1128.91 23.1893 1128.22 22.6082 1127.69 21.9072V31.3983H1123.81V8.76344H1127.69V10.9771ZM1135.79 16.373C1135.79 15.4506 1135.6 14.6574 1135.21 13.9933C1134.84 13.3107 1134.35 12.7942 1133.72 12.4437C1133.11 12.0932 1132.45 11.9179 1131.73 11.9179C1131.03 11.9179 1130.36 12.1024 1129.73 12.4714C1129.13 12.8219 1128.63 13.3384 1128.24 14.0209C1127.87 14.7035 1127.69 15.506 1127.69 16.4283C1127.69 17.3507 1127.87 18.1531 1128.24 18.8357C1128.63 19.5183 1129.13 20.044 1129.73 20.413C1130.36 20.7634 1131.03 20.9387 1131.73 20.9387C1132.45 20.9387 1133.11 20.7542 1133.72 20.3853C1134.35 20.0163 1134.84 19.4906 1135.21 18.808C1135.6 18.1255 1135.79 17.3138 1135.79 16.373Z" fill="white"/>
<path d="M1141.57 16.373C1141.57 14.8234 1141.88 13.4491 1142.48 12.25C1143.11 11.0509 1143.95 10.1285 1145 9.48289C1146.07 8.83723 1147.26 8.5144 1148.57 8.5144C1149.72 8.5144 1150.71 8.74499 1151.56 9.20618C1152.43 9.66736 1153.12 10.2485 1153.64 10.9495V8.76344H1157.54V24.0932H1153.64V21.8518C1153.14 22.5713 1152.45 23.1708 1151.56 23.6505C1150.69 24.1116 1149.69 24.3422 1148.54 24.3422C1147.25 24.3422 1146.07 24.0102 1145 23.3461C1143.95 22.682 1143.11 21.7504 1142.48 20.5513C1141.88 19.3338 1141.57 17.941 1141.57 16.373ZM1153.64 16.4283C1153.64 15.4875 1153.45 14.685 1153.08 14.0209C1152.71 13.3384 1152.21 12.8219 1151.59 12.4714C1150.96 12.1024 1150.29 11.9179 1149.57 11.9179C1148.85 11.9179 1148.18 12.0932 1147.58 12.4437C1146.97 12.7942 1146.47 13.3107 1146.08 13.9933C1145.71 14.6574 1145.53 15.4506 1145.53 16.373C1145.53 17.2953 1145.71 18.107 1146.08 18.808C1146.47 19.4906 1146.97 20.0163 1147.58 20.3853C1148.2 20.7542 1148.87 20.9387 1149.57 20.9387C1150.29 20.9387 1150.96 20.7634 1151.59 20.413C1152.21 20.044 1152.71 19.5275 1153.08 18.8634C1153.45 18.1808 1153.64 17.3691 1153.64 16.4283Z" fill="white"/>
<path d="M1169.82 8.54199C1171.64 8.54199 1173.12 9.12308 1174.24 10.2853C1175.37 11.429 1175.93 13.0339 1175.93 15.1V24.0931H1172.06V15.6258C1172.06 14.4082 1171.75 13.4766 1171.14 12.831C1170.53 12.1669 1169.7 11.8348 1168.65 11.8348C1167.58 11.8348 1166.73 12.1669 1166.11 12.831C1165.5 13.4766 1165.19 14.4082 1165.19 15.6258V24.0931H1161.32V8.76336H1165.19V10.6727C1165.71 10.0086 1166.37 9.49203 1167.16 9.12308C1167.97 8.73569 1168.86 8.54199 1169.82 8.54199Z" fill="white"/>
<path d="M1194.28 8.76343L1184.79 31.343H1180.67L1183.99 23.7058L1177.84 8.76343H1182.19L1186.14 19.4721L1190.16 8.76343H1194.28Z" fill="white"/>
<path d="M1019.6 32.4239H1016.84V13.0857H1027.2V24.8266C1027.2 29.0219 1023.8 32.4239 1019.6 32.4239Z" fill="#0328EE"/>
<path d="M1041.01 13.0858C1041.01 6.41224 1035.6 1 1028.92 1C1028.34 1 1027.76 1.04434 1027.2 1.12564V13.0858H1041.01Z" fill="#0328EE"/>
<path d="M1037.09 25.826C1039.74 24.745 1041.02 21.7212 1039.93 19.072C1038.85 16.4228 1035.83 15.1515 1033.18 16.2324C1030.53 17.3134 1029.26 20.3373 1030.34 22.9865C1031.42 25.6357 1034.45 26.907 1037.09 25.826Z" fill="white"/>
</g>
<defs>
<clipPath id="clip0_41_123">
<rect width="184" height="33" fill="white"/>
</clipPath>
<clipPath id="clip1_41_123">
<rect width="184" height="26" fill="white" transform="translate(0.217896 3.78125)"/>
</clipPath>
<clipPath id="clip2_41_123">
<rect width="175" height="29" fill="white" transform="translate(258 2.53125)"/>
</clipPath>
<clipPath id="clip3_41_123">
<rect width="177" height="29" fill="white" transform="translate(510.492 2.53125)"/>
</clipPath>
<clipPath id="clip4_41_123">
<rect width="180" height="29" fill="white" transform="translate(762.5 2.53125)"/>
</clipPath>
<clipPath id="clip5_41_123">
<rect width="179" height="32" fill="white" transform="translate(1016 1)"/>
</clipPath>
</defs>
</svg>
