<svg width="132" height="36" viewBox="0 0 132 36" fill="none" xmlns="http://www.w3.org/2000/svg">
<rect width="36" height="36" rx="18" fill="white" fill-opacity="0.5"/>
<path d="M18.0223 12.8438C15.1652 12.8438 12.8884 15.1652 12.8884 17.9777C12.8884 20.8348 15.1652 23.1116 18.0223 23.1116C20.8348 23.1116 23.1563 20.8348 23.1563 17.9777C23.1563 15.1652 20.8348 12.8438 18.0223 12.8438ZM18.0223 21.3259C16.192 21.3259 14.6741 19.8527 14.6741 17.9777C14.6741 16.1473 16.1473 14.6741 18.0223 14.6741C19.8527 14.6741 21.3259 16.1473 21.3259 17.9777C21.3259 19.8527 19.8527 21.3259 18.0223 21.3259ZM24.5402 12.6652C24.5402 11.9955 24.0045 11.4598 23.3348 11.4598C22.6652 11.4598 22.1295 11.9955 22.1295 12.6652C22.1295 13.3348 22.6652 13.8705 23.3348 13.8705C24.0045 13.8705 24.5402 13.3348 24.5402 12.6652ZM27.933 13.8705C27.8438 12.2634 27.4866 10.8348 26.3259 9.67411C25.1652 8.51339 23.7366 8.15625 22.1295 8.06696C20.4777 7.97768 15.5223 7.97768 13.8705 8.06696C12.2634 8.15625 10.8795 8.51339 9.67411 9.67411C8.51339 10.8348 8.15625 12.2634 8.06696 13.8705C7.97768 15.5223 7.97768 20.4777 8.06696 22.1295C8.15625 23.7366 8.51339 25.1205 9.67411 26.3259C10.8795 27.4866 12.2634 27.8438 13.8705 27.933C15.5223 28.0223 20.4777 28.0223 22.1295 27.933C23.7366 27.8438 25.1652 27.4866 26.3259 26.3259C27.4866 25.1205 27.8438 23.7366 27.933 22.1295C28.0223 20.4777 28.0223 15.5223 27.933 13.8705ZM25.7902 23.8705C25.4777 24.7634 24.7634 25.433 23.9152 25.7902C22.5759 26.3259 19.4509 26.192 18.0223 26.192C16.5491 26.192 13.4241 26.3259 12.1295 25.7902C11.2366 25.433 10.567 24.7634 10.2098 23.8705C9.67411 22.5759 9.80804 19.4509 9.80804 17.9777C9.80804 16.5491 9.67411 13.4241 10.2098 12.0848C10.567 11.2366 11.2366 10.567 12.1295 10.2098C13.4241 9.67411 16.5491 9.80804 18.0223 9.80804C19.4509 9.80804 22.5759 9.67411 23.9152 10.2098C24.7634 10.5223 25.433 11.2366 25.7902 12.0848C26.3259 13.4241 26.192 16.5491 26.192 17.9777C26.192 19.4509 26.3259 22.5759 25.7902 23.8705Z" fill="white"/>
<rect x="48" width="36" height="36" rx="18" fill="white" fill-opacity="0.5"/>
<path d="M73.8571 8H58.1429C56.9375 8 56 8.98214 56 10.1429V25.8571C56 27.0625 56.9375 28 58.1429 28H64.2589V21.2143H61.4464V18H64.2589V15.5893C64.2589 12.8214 65.9107 11.2589 68.4107 11.2589C69.6607 11.2589 70.9107 11.4821 70.9107 11.4821V14.2054H69.5268C68.1429 14.2054 67.6964 15.0536 67.6964 15.9464V18H70.7768L70.2857 21.2143H67.6964V28H73.8571C75.0179 28 76 27.0625 76 25.8571V10.1429C76 8.98214 75.0179 8 73.8571 8Z" fill="white"/>
<rect x="96" width="36" height="36" rx="18" fill="white" fill-opacity="0.5"/>
<path d="M108.474 28V14.6219H104.313V28H108.474ZM106.371 12.8322C107.714 12.8322 108.787 11.7136 108.787 10.3714C108.787 9.07383 107.714 8 106.371 8C105.074 8 104 9.07383 104 10.3714C104 11.7136 105.074 12.8322 106.371 12.8322ZM124.045 28V20.6622C124.045 17.0828 123.239 14.3087 119.034 14.3087C117.02 14.3087 115.678 15.4273 115.096 16.4564H115.051V14.6219H111.069V28H115.23V21.3781C115.23 19.6331 115.544 17.9776 117.691 17.9776C119.839 17.9776 119.884 19.9463 119.884 21.5123V28H124.045Z" fill="white"/>
</svg>
